# xmcd CD database file generated by Grip 2.9
# 
# Track frame offsets:
#       150
#       14562
#       30225
#       46050
#       64875
# 
# Disc length: 1061 seconds
# 
# Revision: 3
# Processed by: cddbd v1.4b41PL1 Copyright (c) Steve Scherf et al.
# Submitted via: Grip 2.9
# 
DISCID=35042305
DTITLE=Anja Krabbe - Manchmal
DYEAR=1900
DGENRE=
TTITLE0=Manchmal (Ra-Mix)
TTITLE1=Manchmal (Dio-Mix)
TTITLE2=Manchmal (Vocals only)
TTITLE3=Planlos
TTITLE4=Manchmal Nacht für Nacht
EXTD=
EXTT0=
EXTT1=
EXTT2=
EXTT3=
EXTT4=
PLAYORDER=
